<?xml version="1.0" standalone="no"?>
<!DOCTYPE svg PUBLIC "-//W3C//DTD SVG 20010904//EN"
 "http://www.w3.org/TR/2001/REC-SVG-20010904/DTD/svg10.dtd">
<svg version="1.0" xmlns="http://www.w3.org/2000/svg"
 width="284.000000pt" height="284.000000pt" viewBox="0 0 284.000000 284.000000"
 preserveAspectRatio="xMidYMid meet">
<metadata>
Created by potrace 1.14, written by Peter Selinger 2001-2017
</metadata>
<g transform="translate(0.000000,284.000000) scale(0.100000,-0.100000)"
fill="#000000" stroke="none">
<path d="M0 2271 c0 -33 16 -40 90 -42 31 0 39 -3 26 -8 -18 -7 -18 -8 5 -25
24 -17 24 -17 -22 -11 -36 5 -53 3 -73 -10 l-26 -17 0 -213 0 -214 30 -21 c23
-17 42 -21 75 -18 49 3 57 -5 23 -23 l-22 -12 30 -24 29 -25 -30 8 c-36 9 -63
9 -91 -1 -17 -5 -23 -1 -29 17 -7 19 -9 16 -12 -22 -3 -27 0 -46 7 -48 8 -3 7
-8 -1 -18 -14 -16 -14 -16 26 -38 l30 -17 -32 5 -33 6 0 -195 c0 -107 2 -195
5 -195 2 0 36 20 75 45 102 67 223 122 320 146 109 28 240 22 390 -16 93 -24
118 -26 220 -22 175 8 290 47 675 227 436 204 558 247 765 271 99 11 296 7
363 -7 24 -6 27 -4 27 20 0 27 0 27 -62 21 -71 -7 -105 -3 -418 56 -270 51
-383 55 -550 20 -82 -18 -324 -91 -385 -117 -6 -2 -25 26 -44 63 -18 38 -46
89 -63 115 -34 54 -31 68 15 68 18 0 56 3 86 7 l54 6 -149 34 c-82 19 -179 40
-216 47 -38 8 -80 22 -95 32 l-28 18 60 8 c210 28 279 42 440 88 99 27 185 52
190 54 6 3 -203 5 -464 5 l-473 1 16 -25 16 -24 -41 14 c-38 14 -43 13 -68 -6
l-26 -21 -3 31 -3 31 -160 0 c-125 0 -164 -3 -175 -14 -7 -8 -19 -16 -26 -19
-9 -3 -7 -10 7 -21 20 -17 20 -17 -4 -10 -14 3 -44 6 -68 6 -24 -1 -43 3 -43
8 0 5 -19 13 -42 18 l-43 10 37 1 c20 1 40 6 43 11 4 6 -23 10 -74 10 l-81 0
0 -29z m555 -72 c48 -8 47 -8 -15 -4 -36 2 -66 4 -67 5 -2 0 -3 5 -3 11 0 7 7
8 18 4 9 -4 40 -11 67 -16z m-126 -25 l46 6 -25 -20 -25 -20 24 -20 c31 -26
26 -30 -26 -21 -37 7 -45 5 -64 -15 -30 -32 -39 -30 -39 5 0 27 -4 31 -42 39
l-43 9 30 7 c52 13 55 15 55 36 0 20 1 20 32 4 22 -12 45 -15 77 -10z m416
-24 c18 -8 17 -9 -7 -9 -15 -1 -30 4 -33 9 -7 12 12 12 40 0z m-157 -50 c20
-17 35 -20 71 -15 l46 6 -27 -22 -26 -22 26 -24 27 -24 -44 6 c-39 5 -48 2
-73 -22 l-28 -27 0 31 c0 32 -14 43 -55 43 -41 0 -37 18 5 25 36 6 40 10 40
36 0 34 4 35 38 9z m330 -91 c22 -17 35 -19 72 -14 l45 6 -22 -22 -23 -23 28
-29 27 -28 -51 6 c-47 7 -51 5 -68 -20 -14 -22 -20 -25 -27 -14 -5 8 -9 24 -9
35 0 17 -8 23 -42 29 l-43 7 43 15 c40 14 43 17 37 44 -8 34 -2 36 33 8z
m-835 -45 c20 -27 27 -27 97 -7 l25 7 -27 -36 -27 -35 32 -32 32 -32 -40 7
c-22 3 -43 7 -47 8 -4 0 -20 -15 -37 -34 l-30 -35 -1 42 c0 38 -3 43 -27 49
-68 15 -69 16 -23 33 43 16 45 18 42 54 -4 44 3 46 31 11z m407 -129 c52 20
54 18 30 -21 l-22 -35 26 -28 c30 -32 33 -44 9 -38 -68 19 -71 18 -94 -20
l-23 -36 -10 44 c-10 41 -13 44 -56 52 l-45 9 45 18 c45 18 45 18 42 61 l-4
44 34 -31 c32 -30 35 -31 68 -19z m350 -112 c22 8 40 14 40 12 0 -2 -10 -20
-21 -40 l-22 -36 33 -33 32 -34 -48 9 c-37 7 -50 6 -56 -4 -4 -8 -16 -25 -27
-38 l-20 -24 -1 42 c0 42 0 43 -47 55 l-48 12 44 19 43 19 -7 46 -7 47 36 -34
35 -34 41 16z m336 -119 c20 9 39 15 41 12 3 -3 -4 -20 -15 -38 l-21 -33 32
-34 32 -33 -47 6 c-47 7 -48 7 -70 -30 l-22 -38 -11 44 c-10 42 -13 45 -55 54
l-45 9 44 19 43 20 -5 45 -5 45 34 -33 34 -33 36 18z m-818 -34 c47 8 52 2 22
-25 -21 -19 -21 -19 10 -38 40 -25 33 -31 -17 -13 -25 9 -45 11 -54 5 -22 -14
-37 -11 -44 10 -3 12 -23 24 -53 32 l-47 13 41 4 c39 3 41 5 36 30 l-5 27 34
-27 c31 -23 40 -25 77 -18z m-98 -121 c19 0 29 -3 23 -6 -21 -8 -15 -20 17
-33 43 -18 30 -24 -20 -10 -36 10 -45 9 -61 -6 -21 -19 -21 -19 -37 11 -6 12
-29 24 -59 31 l-48 12 38 1 c33 1 38 4 32 21 -6 19 -6 19 37 0 24 -11 59 -20
78 -21z m373 7 c28 -22 38 -24 72 -16 49 11 54 6 27 -23 l-22 -23 25 -24 c32
-30 27 -34 -17 -16 -30 13 -38 13 -55 1 -18 -13 -21 -12 -33 11 -8 14 -29 29
-52 36 -46 14 -50 26 -7 20 30 -4 31 -3 27 27 -2 17 -3 31 -1 31 3 0 19 -11
36 -24z"/>
<path d="M223 2293 c9 -2 23 -2 30 0 6 3 -1 5 -18 5 -16 0 -22 -2 -12 -5z"/>
<path d="M2280 2234 c-448 -167 -623 -222 -732 -226 -41 -1 -41 -1 -8 -5 19
-3 145 -25 280 -50 155 -29 272 -46 320 -46 130 1 363 61 620 161 l75 29 3
102 3 101 -193 0 -193 -1 -175 -65z m-465 -235 c12 -12 0 -11 -60 7 l-50 14
50 -6 c28 -3 54 -10 60 -15z m108 -26 c-7 -2 -19 -2 -25 0 -7 3 -2 5 12 5 14
0 19 -2 13 -5z m85 -10 c-10 -2 -26 -2 -35 0 -10 3 -2 5 17 5 19 0 27 -2 18
-5z"/>
<path d="M2670 1545 c-119 -34 -282 -102 -455 -187 -184 -91 -459 -215 -580
-261 -236 -89 -364 -97 -535 -33 -129 48 -184 59 -255 51 -97 -10 -156 -25
-148 -38 4 -6 0 -8 -10 -4 -9 3 -40 -2 -69 -12 -103 -35 -169 -74 -403 -236
-50 -34 -118 -77 -152 -96 l-63 -33 0 -83 0 -83 206 0 207 0 132 89 c226 152
369 220 515 246 108 19 170 8 290 -52 l95 -48 110 0 c125 1 196 17 410 96 210
77 258 99 585 274 85 46 185 97 223 114 l67 30 0 151 0 150 -27 -1 c-16 0 -80
-15 -143 -34z"/>
<path d="M2685 841 c-201 -133 -338 -201 -615 -304 -8 -3 134 -6 317 -6 l332
-1 60 38 61 37 0 168 c0 92 -1 167 -3 167 -2 0 -70 -45 -152 -99z"/>
<path d="M1235 571 c-138 -38 -133 -40 105 -40 l225 0 -50 26 c-68 36 -180 41
-280 14z"/>
</g>
</svg>
